<svg xmlns="http://www.w3.org/2000/svg" xmlns:xlink="http://www.w3.org/1999/xlink" width="1920" zoomAndPan="magnify" viewBox="0 0 1440 809.999993" height="1080" preserveAspectRatio="xMidYMid meet" version="1.0"><defs><g/></defs><g fill="#ff3131" fill-opacity="1"><g transform="translate(407.917954, 438.523592)"><g><path d="M 63.25 2.65625 C 51.519531 2.65625 42.25 0.582031 35.4375 -3.5625 C 28.632812 -7.71875 23.765625 -14.082031 20.828125 -22.65625 C 17.898438 -31.238281 16.4375 -42.554688 16.4375 -56.609375 L 16.4375 -90.296875 C 16.4375 -97.378906 16.65625 -103.800781 17.09375 -109.5625 L 5.140625 -109.0625 L 5.140625 -116.203125 L 42.328125 -116.203125 L 42.328125 -110.71875 C 37.460938 -110.71875 34.363281 -109.441406 33.03125 -106.890625 C 31.707031 -104.347656 31.046875 -101.253906 31.046875 -97.609375 L 31.046875 -55.78125 C 31.046875 -46.144531 31.898438 -37.8125 33.609375 -30.78125 C 35.328125 -23.757812 38.703125 -18.007812 43.734375 -13.53125 C 48.773438 -9.050781 56 -6.8125 65.40625 -6.8125 C 76.914062 -6.8125 85.460938 -10.765625 91.046875 -18.671875 C 96.640625 -26.585938 99.546875 -37.351562 99.765625 -50.96875 L 100.265625 -97.609375 C 100.265625 -102.253906 100.429688 -106.238281 100.765625 -109.5625 L 88.96875 -108.890625 L 88.96875 -116.203125 L 119.859375 -116.203125 L 119.859375 -110.71875 C 115.867188 -110.613281 113.039062 -109.726562 111.375 -108.0625 C 109.71875 -106.40625 108.78125 -104.441406 108.5625 -102.171875 C 108.34375 -99.898438 108.234375 -95.941406 108.234375 -90.296875 L 107.90625 -51.796875 C 107.789062 -35.742188 104.21875 -22.65625 97.1875 -12.53125 C 90.164062 -2.40625 78.851562 2.65625 63.25 2.65625 Z M 63.25 2.65625 "/></g></g></g><g fill="#ff3131" fill-opacity="1"><g transform="translate(532.746954, 438.523592)"><g><path d="M 6.640625 -6.8125 L 52.953125 -66.40625 C 54.722656 -68.726562 56.492188 -70.96875 58.265625 -73.125 C 60.035156 -75.28125 61.421875 -76.632812 62.421875 -77.1875 L 31.203125 -76.6875 C 25.554688 -76.582031 21.597656 -74.5625 19.328125 -70.625 C 17.066406 -66.695312 15.382812 -60.914062 14.28125 -53.28125 L 9.125 -53.28125 L 11.125 -83 L 76.1875 -83 L 76.1875 -77.6875 L 29.375 -16.109375 C 28.050781 -14.441406 26.753906 -12.859375 25.484375 -11.359375 C 24.210938 -9.867188 22.632812 -8.351562 20.75 -6.8125 L 52.78125 -6.3125 C 59.09375 -6.195312 63.710938 -8.242188 66.640625 -12.453125 C 69.578125 -16.660156 71.597656 -22.582031 72.703125 -30.21875 L 77.515625 -30.21875 L 75.53125 0 L 6.640625 0 Z M 6.640625 -6.8125 "/></g></g></g><g fill="#ff3131" fill-opacity="1"><g transform="translate(617.570913, 438.523592)"><g><path d="M 17.4375 -86.65625 L 15.265625 -93.125 C 12.609375 -101.425781 11.003906 -106.796875 10.453125 -109.234375 L 1.15625 -108.890625 L 1.15625 -116.203125 L 41.5 -116.203125 L 41.5 -110.71875 C 36.957031 -110.5 33.742188 -109.753906 31.859375 -108.484375 C 29.984375 -107.210938 29.046875 -105.132812 29.046875 -102.25 C 29.046875 -99.59375 29.597656 -96.382812 30.703125 -92.625 C 32.703125 -85.207031 35.359375 -76.910156 38.671875 -67.734375 C 39.234375 -66.066406 39.898438 -64.097656 40.671875 -61.828125 C 41.441406 -59.566406 42.328125 -56.941406 43.328125 -53.953125 C 43.992188 -51.628906 44.820312 -49.082031 45.8125 -46.3125 C 46.8125 -43.539062 47.53125 -41.550781 47.96875 -40.34375 C 50.1875 -34.363281 51.847656 -29.601562 52.953125 -26.0625 L 53.28125 -26.0625 C 55.5 -33.582031 57.769531 -40.882812 60.09375 -47.96875 C 64.070312 -60.8125 68.441406 -74.367188 73.203125 -88.640625 C 78.179688 -103.578125 81.171875 -112.875 82.171875 -116.53125 L 87.484375 -116.53125 C 88.804688 -111.988281 91.070312 -104.875 94.28125 -95.1875 C 97.5 -85.507812 99.828125 -78.515625 101.265625 -74.203125 C 104.578125 -64.679688 106.84375 -57.929688 108.0625 -53.953125 C 108.945312 -50.960938 110.382812 -46.476562 112.375 -40.5 C 114.59375 -34.082031 116.363281 -28.601562 117.6875 -24.0625 L 118.1875 -24.0625 C 120.84375 -32.695312 123.113281 -39.835938 125 -45.484375 C 130.644531 -61.523438 135.238281 -75.359375 138.78125 -86.984375 C 140 -91.078125 141.101562 -94.507812 142.09375 -97.28125 C 144.195312 -102.914062 145.910156 -106.953125 147.234375 -109.390625 L 133.96875 -108.890625 L 133.96875 -116.203125 L 167.65625 -116.203125 L 167.65625 -110.71875 C 163.675781 -110.28125 160.660156 -109.453125 158.609375 -108.234375 C 156.566406 -107.015625 154.742188 -104.828125 153.140625 -101.671875 C 151.535156 -98.515625 149.515625 -93.34375 147.078125 -86.15625 L 138.609375 -60.921875 C 129.753906 -34.023438 122.617188 -13.164062 117.203125 1.65625 L 112.21875 1.65625 L 81.171875 -87.15625 L 51.953125 1.65625 L 47.140625 1.65625 Z M 17.4375 -86.65625 "/></g></g></g><g fill="#ff3131" fill-opacity="1"><g transform="translate(782.736932, 438.523592)"><g><path d="M 23.734375 -101.09375 C 21.410156 -101.09375 19.363281 -102.0625 17.59375 -104 C 15.820312 -105.9375 14.9375 -108.234375 14.9375 -110.890625 C 14.9375 -113.546875 15.847656 -115.867188 17.671875 -117.859375 C 19.503906 -119.847656 21.582031 -120.84375 23.90625 -120.84375 C 26.445312 -120.84375 28.578125 -119.875 30.296875 -117.9375 C 32.015625 -116 32.875 -113.648438 32.875 -110.890625 C 32.875 -108.234375 31.957031 -105.9375 30.125 -104 C 28.300781 -102.0625 26.171875 -101.09375 23.734375 -101.09375 Z M 7.296875 -4.984375 C 10.515625 -4.984375 12.8125 -5.785156 14.1875 -7.390625 C 15.570312 -8.992188 16.398438 -11.039062 16.671875 -13.53125 C 16.953125 -16.019531 17.09375 -19.921875 17.09375 -25.234375 L 17.09375 -63.078125 C 17.09375 -66.285156 17.316406 -69.882812 17.765625 -73.875 L 5.96875 -73.203125 L 5.96875 -80.171875 C 12.5 -80.171875 17.175781 -80.554688 20 -81.328125 C 22.820312 -82.109375 25.007812 -83.21875 26.5625 -84.65625 L 31.375 -84.65625 L 31.375 -17.59375 C 31.375 -12.613281 31.148438 -8.851562 30.703125 -6.3125 L 41.171875 -6.8125 L 41.171875 0 L 7.296875 0 Z M 7.296875 -4.984375 "/></g></g></g><g fill="#ff3131" fill-opacity="1"><g transform="translate(829.381812, 438.523592)"><g><path d="M 7.296875 -4.984375 C 10.515625 -4.984375 12.8125 -5.785156 14.1875 -7.390625 C 15.570312 -8.992188 16.398438 -11.039062 16.671875 -13.53125 C 16.953125 -16.019531 17.09375 -19.921875 17.09375 -25.234375 L 17.09375 -63.078125 C 17.09375 -67.722656 17.316406 -71.320312 17.765625 -73.875 L 5.96875 -73.375 L 5.96875 -80.171875 L 11.125 -80.171875 C 15.332031 -80.171875 18.375 -80.53125 20.25 -81.25 C 22.132812 -81.976562 23.90625 -83.113281 25.5625 -84.65625 L 30.375 -84.65625 C 30.820312 -80.34375 31.097656 -74.863281 31.203125 -68.21875 C 33.972656 -72.757812 37.929688 -76.800781 43.078125 -80.34375 C 48.222656 -83.882812 53.5625 -85.65625 59.09375 -85.65625 C 62.414062 -85.65625 65.179688 -84.769531 67.390625 -83 C 69.609375 -81.226562 70.71875 -78.628906 70.71875 -75.203125 C 70.71875 -73.429688 70.023438 -71.660156 68.640625 -69.890625 C 67.253906 -68.117188 65.289062 -67.234375 62.75 -67.234375 C 60.3125 -67.234375 58.316406 -68.144531 56.765625 -69.96875 C 55.222656 -71.789062 54.617188 -73.976562 54.953125 -76.53125 C 50.742188 -76.632812 46.507812 -75.023438 42.25 -71.703125 C 37.988281 -68.390625 34.363281 -63.96875 31.375 -58.4375 L 31.546875 -17.59375 C 31.546875 -12.613281 31.320312 -8.851562 30.875 -6.3125 L 41.328125 -6.8125 L 41.328125 0 L 7.296875 0 Z M 7.296875 -4.984375 "/></g></g></g><g fill="#ff3131" fill-opacity="1"><g transform="translate(901.258075, 438.523592)"><g><path d="M 47.46875 2.65625 C 39.832031 2.65625 32.941406 0.859375 26.796875 -2.734375 C 20.660156 -6.335938 15.820312 -11.484375 12.28125 -18.171875 C 8.738281 -24.867188 6.96875 -32.585938 6.96875 -41.328125 C 6.96875 -49.078125 8.738281 -56.351562 12.28125 -63.15625 C 15.820312 -69.96875 20.773438 -75.421875 27.140625 -79.515625 C 33.503906 -83.609375 40.722656 -85.65625 48.796875 -85.65625 C 55.109375 -85.65625 60.804688 -84.269531 65.890625 -81.5 C 70.984375 -78.738281 75.023438 -74.617188 78.015625 -69.140625 C 81.003906 -63.660156 82.5 -56.9375 82.5 -48.96875 L 24.0625 -47.96875 C 23.957031 -34.6875 26.144531 -24.335938 30.625 -16.921875 C 35.101562 -9.515625 42.046875 -5.8125 51.453125 -5.8125 C 56.546875 -5.8125 61.773438 -7.140625 67.140625 -9.796875 C 72.515625 -12.453125 76.640625 -15.71875 79.515625 -19.59375 L 83.5 -16.265625 C 79.289062 -9.847656 73.835938 -5.085938 67.140625 -1.984375 C 60.453125 1.109375 53.894531 2.65625 47.46875 2.65625 Z M 66.890625 -54.953125 C 66.890625 -61.585938 65.394531 -67.285156 62.40625 -72.046875 C 59.425781 -76.804688 54.945312 -79.1875 48.96875 -79.1875 C 35.25 -79.1875 27.113281 -71.109375 24.5625 -54.953125 Z M 66.890625 -54.953125 "/></g></g></g><g fill="#ff3131" fill-opacity="1"><g transform="translate(991.227949, 438.523592)"><g><path d="M 20.25 2.65625 C 17.59375 2.65625 15.320312 1.632812 13.4375 -0.40625 C 11.5625 -2.457031 10.625 -4.976562 10.625 -7.96875 C 10.625 -10.957031 11.59375 -13.503906 13.53125 -15.609375 C 15.46875 -17.710938 17.765625 -18.765625 20.421875 -18.765625 C 23.179688 -18.765625 25.472656 -17.710938 27.296875 -15.609375 C 29.128906 -13.503906 30.046875 -10.957031 30.046875 -7.96875 C 30.046875 -4.976562 29.078125 -2.457031 27.140625 -0.40625 C 25.203125 1.632812 22.90625 2.65625 20.25 2.65625 Z M 20.25 2.65625 "/></g></g></g></svg>